<?xml version="1.0" encoding="UTF-8"?>
<svg width="715px" height="164px" viewBox="0 0 715 164" version="1.1" xmlns="http://www.w3.org/2000/svg" xmlns:xlink="http://www.w3.org/1999/xlink">
    <!-- Generator: Sketch 41 (35326) - http://www.bohemiancoding.com/sketch -->
    <title>Renovir Identity</title>
    <desc>Created with Sketch.</desc>
    <defs></defs>
    <g id="Page-1" stroke="none" stroke-width="1" fill="none" fill-rule="evenodd">
        <g id="Renovir-Identity" fill="#00A3DB">
            <path d="M137.637,34.863 L73.637,34.863 C47.8,34.863 26.78,55.883 26.78,81.72 L26.78,132.223 C33.17,137.57 40.466,141.865 48.406,144.849 L48.406,81.72 C48.406,67.808 59.725,56.489 73.637,56.489 L147.02,56.489 C145.043,48.719 141.835,41.445 137.637,34.863" id="Fill-1"></path>
            <path d="M59.261,100.715 L59.261,148.011 C64.232,149.054 69.381,149.61 74.662,149.61 C76.76,149.61 78.832,149.501 80.887,149.331 L80.887,100.715 C80.887,94.2 86.187,88.899 92.703,88.899 L148.003,88.899 C148.858,84.378 149.324,79.718 149.324,74.948 C149.324,72.357 149.191,69.796 148.933,67.273 L92.703,67.273 C74.263,67.273 59.261,82.275 59.261,100.715" id="Fill-2"></path>
            <path d="M136.854,33.643 C144.727,45.473 149.324,59.672 149.324,74.948 C149.324,116.183 115.897,149.61 74.662,149.61 C55.569,149.61 38.159,142.434 24.957,130.644 C38.335,150.747 61.191,164 87.149,164 C128.384,164 161.811,130.573 161.811,89.338 C161.811,67.196 152.164,47.315 136.854,33.643" id="Fill-3"></path>
            <path d="M12.487,89.338 C12.487,48.104 45.914,14.676 87.149,14.676 C106.242,14.676 123.652,21.852 136.854,33.643 C123.476,13.539 100.62,0.286 74.662,0.286 C33.427,0.286 0,33.713 0,74.948 C0,97.09 9.647,116.971 24.957,130.644 C17.084,118.813 12.487,104.614 12.487,89.338" id="Fill-4"></path>
            <path d="M217.305,124.882 L204.735,124.882 L204.735,71.986 C204.735,55.096 218.476,41.354 235.367,41.354 L260.132,41.354 L260.132,53.924 L235.367,53.924 C225.407,53.924 217.305,62.027 217.305,71.986 L217.305,124.882" id="Fill-5"></path>
            <polygon id="Fill-6" points="204.145 124.882 217.868 124.882 217.868 41.24 204.145 41.24"></polygon>
            <path d="M671.692,124.882 L659.122,124.882 L659.122,71.986 C659.122,55.096 672.863,41.354 689.754,41.354 L714.519,41.354 L714.519,53.924 L689.754,53.924 C679.794,53.924 671.692,62.027 671.692,71.986 L671.692,124.882" id="Fill-7"></path>
            <polygon id="Fill-8" points="658.532 124.882 672.255 124.882 672.255 41.24 658.532 41.24"></polygon>
            <polygon id="Fill-9" points="626.926 124.88 640.795 124.88 640.795 41.24 626.926 41.24"></polygon>
            <polygon id="Fill-10" points="357.805 124.882 371.527 124.882 371.527 41.24 357.805 41.24"></polygon>
            <path d="M434.869,124.88 L422.282,124.88 L422.282,71.913 C422.282,61.94 414.169,53.827 404.196,53.827 L371.527,53.827 L371.527,41.24 L404.196,41.24 C421.109,41.24 434.869,55 434.869,71.913 L434.869,124.88" id="Fill-11"></path>
            <path d="M277.879,71.548 L324.369,71.548 L324.369,69.646 C324.369,60.431 316.872,52.933 307.657,52.933 L294.591,52.933 C285.376,52.933 277.879,60.431 277.879,69.646 L277.879,71.548 Z M313.064,124.57 L294.591,124.57 C278.963,124.57 266.249,111.856 266.249,96.228 L266.249,69.646 C266.249,54.018 278.963,41.303 294.591,41.303 L307.657,41.303 C323.285,41.303 335.999,54.018 335.999,69.646 L335.999,83.178 L277.879,83.178 L277.879,96.228 C277.879,105.443 285.376,112.94 294.591,112.94 L313.064,112.94 C318.017,112.94 322.697,110.734 325.902,106.886 L334.837,114.331 C329.416,120.838 321.479,124.57 313.064,124.57 L313.064,124.57 Z" id="Fill-12"></path>
            <path d="M488.645,52.915 C476.901,52.915 467.346,62.469 467.346,74.213 L467.346,91.909 C467.346,103.653 476.901,113.208 488.645,113.208 C500.389,113.208 509.943,103.653 509.943,91.909 L509.943,74.213 C509.943,62.469 500.389,52.915 488.645,52.915 Z M488.645,124.882 C470.463,124.882 455.672,110.091 455.672,91.909 L455.672,74.213 C455.672,56.032 470.463,41.24 488.645,41.24 C506.826,41.24 521.618,56.032 521.618,74.213 L521.618,91.909 C521.618,110.091 506.826,124.882 488.645,124.882 L488.645,124.882 Z" id="Fill-13"></path>
            <path d="M595.896,41.24 L583.505,109.793 C581.678,111.091 579.486,111.79 577.179,111.79 C574.8,111.79 572.545,111.047 570.684,109.672 L553.787,41.24 L540.314,41.24 L558.914,116.572 L560.202,117.86 C564.883,122.541 571.031,124.88 577.179,124.88 C583.326,124.88 589.474,122.541 594.155,117.86 L595.602,116.413 L609.189,41.24 L595.896,41.24" id="Fill-14"></path>
        </g>
    </g>
</svg>